<mxfile host="app.diagrams.net" modified="2024-05-24T14:42:24.504Z" agent="Mozilla/5.0 (Windows NT 10.0; Win64; x64) AppleWebKit/537.36 (KHTML, like Gecko) Chrome/124.0.0.0 Safari/537.36" etag="pRpcZCMgXNHhxVkObRdT" version="24.3.1" type="github">
  <diagram name="Page-1" id="-mlUwQ97w1i4sUfvK8yz">
    <mxGraphModel dx="1427" dy="626" grid="1" gridSize="10" guides="1" tooltips="1" connect="1" arrows="1" fold="1" page="1" pageScale="1" pageWidth="850" pageHeight="1100" math="0" shadow="0">
      <root>
        <mxCell id="0" />
        <mxCell id="1" parent="0" />
        <mxCell id="upV95KGGiybuSMdhG28T-7" style="edgeStyle=orthogonalEdgeStyle;rounded=0;orthogonalLoop=1;jettySize=auto;html=1;" edge="1" parent="1" source="upV95KGGiybuSMdhG28T-9" target="upV95KGGiybuSMdhG28T-5">
          <mxGeometry relative="1" as="geometry" />
        </mxCell>
        <mxCell id="upV95KGGiybuSMdhG28T-32" style="edgeStyle=orthogonalEdgeStyle;rounded=1;orthogonalLoop=1;jettySize=auto;html=1;entryX=1;entryY=0.5;entryDx=0;entryDy=0;exitX=0;exitY=0.25;exitDx=0;exitDy=0;curved=0;" edge="1" parent="1" source="upV95KGGiybuSMdhG28T-1" target="upV95KGGiybuSMdhG28T-31">
          <mxGeometry relative="1" as="geometry">
            <Array as="points">
              <mxPoint x="460" y="365" />
              <mxPoint x="460" y="320" />
              <mxPoint x="410" y="320" />
              <mxPoint x="410" y="140" />
            </Array>
          </mxGeometry>
        </mxCell>
        <mxCell id="upV95KGGiybuSMdhG28T-1" value="APP" style="rounded=1;whiteSpace=wrap;html=1;fillColor=#cdeb8b;strokeColor=#36393d;fontStyle=1" vertex="1" parent="1">
          <mxGeometry x="490" y="350" width="120" height="60" as="geometry" />
        </mxCell>
        <mxCell id="upV95KGGiybuSMdhG28T-29" value="" style="edgeStyle=orthogonalEdgeStyle;rounded=0;orthogonalLoop=1;jettySize=auto;html=1;shape=link;fillColor=#647687;strokeColor=#314354;" edge="1" parent="1" source="upV95KGGiybuSMdhG28T-2" target="upV95KGGiybuSMdhG28T-5">
          <mxGeometry relative="1" as="geometry" />
        </mxCell>
        <mxCell id="upV95KGGiybuSMdhG28T-2" value="AWS Server" style="rounded=1;whiteSpace=wrap;html=1;fillColor=#ffe6cc;strokeColor=#d79b00;" vertex="1" parent="1">
          <mxGeometry x="240" y="230" width="120" height="60" as="geometry" />
        </mxCell>
        <mxCell id="upV95KGGiybuSMdhG28T-27" style="edgeStyle=orthogonalEdgeStyle;rounded=1;orthogonalLoop=1;jettySize=auto;html=1;curved=0;shape=link;fillColor=#647687;strokeColor=#314354;" edge="1" parent="1" source="upV95KGGiybuSMdhG28T-3" target="upV95KGGiybuSMdhG28T-22">
          <mxGeometry relative="1" as="geometry" />
        </mxCell>
        <mxCell id="upV95KGGiybuSMdhG28T-28" value="" style="edgeStyle=orthogonalEdgeStyle;rounded=0;orthogonalLoop=1;jettySize=auto;html=1;shape=link;fillColor=#647687;strokeColor=#314354;" edge="1" parent="1" source="upV95KGGiybuSMdhG28T-3" target="upV95KGGiybuSMdhG28T-1">
          <mxGeometry relative="1" as="geometry" />
        </mxCell>
        <mxCell id="upV95KGGiybuSMdhG28T-30" value="" style="edgeStyle=orthogonalEdgeStyle;rounded=0;orthogonalLoop=1;jettySize=auto;html=1;shape=link;fillColor=#647687;strokeColor=#314354;" edge="1" parent="1" source="upV95KGGiybuSMdhG28T-3" target="upV95KGGiybuSMdhG28T-4">
          <mxGeometry relative="1" as="geometry">
            <Array as="points">
              <mxPoint x="550" y="210" />
              <mxPoint x="650" y="210" />
            </Array>
          </mxGeometry>
        </mxCell>
        <mxCell id="upV95KGGiybuSMdhG28T-3" value="VPS Server" style="rounded=1;whiteSpace=wrap;html=1;fillColor=#ffe6cc;strokeColor=#d79b00;" vertex="1" parent="1">
          <mxGeometry x="490" y="230" width="120" height="60" as="geometry" />
        </mxCell>
        <mxCell id="upV95KGGiybuSMdhG28T-4" value="EHSCAN.COM" style="rounded=1;whiteSpace=wrap;html=1;fillColor=#cce5ff;strokeColor=#36393d;" vertex="1" parent="1">
          <mxGeometry x="590" y="120" width="120" height="60" as="geometry" />
        </mxCell>
        <mxCell id="upV95KGGiybuSMdhG28T-8" style="edgeStyle=orthogonalEdgeStyle;rounded=0;orthogonalLoop=1;jettySize=auto;html=1;entryX=0.5;entryY=0;entryDx=0;entryDy=0;" edge="1" parent="1" source="upV95KGGiybuSMdhG28T-5" target="upV95KGGiybuSMdhG28T-13">
          <mxGeometry relative="1" as="geometry" />
        </mxCell>
        <mxCell id="upV95KGGiybuSMdhG28T-5" value="Image-analyzer" style="rounded=1;whiteSpace=wrap;html=1;fillColor=#d5e8d4;strokeColor=#82b366;fontStyle=1" vertex="1" parent="1">
          <mxGeometry x="240" y="350" width="120" height="60" as="geometry" />
        </mxCell>
        <mxCell id="upV95KGGiybuSMdhG28T-15" style="edgeStyle=orthogonalEdgeStyle;rounded=1;orthogonalLoop=1;jettySize=auto;html=1;entryX=0.5;entryY=1;entryDx=0;entryDy=0;curved=0;" edge="1" parent="1" source="upV95KGGiybuSMdhG28T-6" target="upV95KGGiybuSMdhG28T-14">
          <mxGeometry relative="1" as="geometry" />
        </mxCell>
        <mxCell id="upV95KGGiybuSMdhG28T-21" style="edgeStyle=orthogonalEdgeStyle;rounded=0;orthogonalLoop=1;jettySize=auto;html=1;entryX=0.5;entryY=0;entryDx=0;entryDy=0;" edge="1" parent="1" source="upV95KGGiybuSMdhG28T-6" target="upV95KGGiybuSMdhG28T-16">
          <mxGeometry relative="1" as="geometry" />
        </mxCell>
        <mxCell id="upV95KGGiybuSMdhG28T-6" value="MongoDB" style="rounded=1;whiteSpace=wrap;html=1;fillColor=#dae8fc;strokeColor=#6c8ebf;" vertex="1" parent="1">
          <mxGeometry x="240" y="520" width="120" height="70" as="geometry" />
        </mxCell>
        <mxCell id="upV95KGGiybuSMdhG28T-10" value="IMG" style="rhombus;whiteSpace=wrap;html=1;fillColor=#f8cecc;strokeColor=#b85450;" vertex="1" parent="1">
          <mxGeometry x="270" y="440" width="60" height="40" as="geometry" />
        </mxCell>
        <mxCell id="upV95KGGiybuSMdhG28T-11" value="" style="edgeStyle=orthogonalEdgeStyle;rounded=0;orthogonalLoop=1;jettySize=auto;html=1;" edge="1" parent="1" source="upV95KGGiybuSMdhG28T-1" target="upV95KGGiybuSMdhG28T-9">
          <mxGeometry relative="1" as="geometry">
            <mxPoint x="485" y="380" as="sourcePoint" />
            <mxPoint x="345" y="380" as="targetPoint" />
          </mxGeometry>
        </mxCell>
        <mxCell id="upV95KGGiybuSMdhG28T-9" value="IMG" style="rhombus;whiteSpace=wrap;html=1;fillColor=#f8cecc;strokeColor=#b85450;" vertex="1" parent="1">
          <mxGeometry x="395" y="360" width="60" height="40" as="geometry" />
        </mxCell>
        <mxCell id="upV95KGGiybuSMdhG28T-12" style="edgeStyle=orthogonalEdgeStyle;rounded=0;orthogonalLoop=1;jettySize=auto;html=1;exitX=0.5;exitY=1;exitDx=0;exitDy=0;" edge="1" parent="1" source="upV95KGGiybuSMdhG28T-6" target="upV95KGGiybuSMdhG28T-6">
          <mxGeometry relative="1" as="geometry" />
        </mxCell>
        <mxCell id="upV95KGGiybuSMdhG28T-13" value="BIN" style="rhombus;whiteSpace=wrap;html=1;fillColor=#f8cecc;strokeColor=#b85450;" vertex="1" parent="1">
          <mxGeometry x="270" y="500" width="60" height="40" as="geometry" />
        </mxCell>
        <mxCell id="upV95KGGiybuSMdhG28T-19" style="edgeStyle=orthogonalEdgeStyle;rounded=1;orthogonalLoop=1;jettySize=auto;html=1;entryX=0.5;entryY=1;entryDx=0;entryDy=0;exitX=0.25;exitY=1;exitDx=0;exitDy=0;curved=0;" edge="1" parent="1" source="upV95KGGiybuSMdhG28T-14" target="upV95KGGiybuSMdhG28T-18">
          <mxGeometry relative="1" as="geometry">
            <Array as="points">
              <mxPoint x="80" y="690" />
              <mxPoint x="550" y="690" />
            </Array>
          </mxGeometry>
        </mxCell>
        <mxCell id="upV95KGGiybuSMdhG28T-14" value="OpenAI" style="rounded=1;whiteSpace=wrap;html=1;fillColor=#cdeb8b;strokeColor=#36393d;" vertex="1" parent="1">
          <mxGeometry x="50" y="230" width="120" height="60" as="geometry" />
        </mxCell>
        <mxCell id="upV95KGGiybuSMdhG28T-17" style="edgeStyle=orthogonalEdgeStyle;rounded=1;orthogonalLoop=1;jettySize=auto;html=1;entryX=0.5;entryY=1;entryDx=0;entryDy=0;curved=0;" edge="1" parent="1" source="upV95KGGiybuSMdhG28T-16" target="upV95KGGiybuSMdhG28T-14">
          <mxGeometry relative="1" as="geometry" />
        </mxCell>
        <mxCell id="upV95KGGiybuSMdhG28T-16" value="Prompt Library" style="rounded=1;whiteSpace=wrap;html=1;fillColor=#ffe6cc;strokeColor=#d79b00;" vertex="1" parent="1">
          <mxGeometry x="240" y="630" width="120" height="30" as="geometry" />
        </mxCell>
        <mxCell id="upV95KGGiybuSMdhG28T-20" style="edgeStyle=orthogonalEdgeStyle;rounded=0;orthogonalLoop=1;jettySize=auto;html=1;" edge="1" parent="1" source="upV95KGGiybuSMdhG28T-18" target="upV95KGGiybuSMdhG28T-6">
          <mxGeometry relative="1" as="geometry" />
        </mxCell>
        <mxCell id="upV95KGGiybuSMdhG28T-18" value="RESULT" style="rhombus;whiteSpace=wrap;html=1;fillColor=#1ba1e2;strokeColor=#006EAF;fontColor=#ffffff;" vertex="1" parent="1">
          <mxGeometry x="510" y="525" width="80" height="60" as="geometry" />
        </mxCell>
        <mxCell id="upV95KGGiybuSMdhG28T-23" style="edgeStyle=orthogonalEdgeStyle;rounded=1;orthogonalLoop=1;jettySize=auto;html=1;entryX=1;entryY=0.5;entryDx=0;entryDy=0;exitX=0.5;exitY=1;exitDx=0;exitDy=0;curved=0;" edge="1" parent="1" source="upV95KGGiybuSMdhG28T-22" target="upV95KGGiybuSMdhG28T-18">
          <mxGeometry relative="1" as="geometry" />
        </mxCell>
        <mxCell id="upV95KGGiybuSMdhG28T-26" style="edgeStyle=orthogonalEdgeStyle;rounded=1;orthogonalLoop=1;jettySize=auto;html=1;entryX=1;entryY=0.5;entryDx=0;entryDy=0;curved=0;" edge="1" parent="1" source="upV95KGGiybuSMdhG28T-22" target="upV95KGGiybuSMdhG28T-1">
          <mxGeometry relative="1" as="geometry" />
        </mxCell>
        <mxCell id="upV95KGGiybuSMdhG28T-22" value="WebSocket" style="rounded=1;whiteSpace=wrap;html=1;fillColor=#d5e8d4;strokeColor=#82b366;" vertex="1" parent="1">
          <mxGeometry x="690" y="360" width="120" height="40" as="geometry" />
        </mxCell>
        <mxCell id="upV95KGGiybuSMdhG28T-24" value="???" style="ellipse;whiteSpace=wrap;html=1;aspect=fixed;fillColor=#fa6800;fontColor=#000000;strokeColor=#C73500;" vertex="1" parent="1">
          <mxGeometry x="570" y="570" width="40" height="40" as="geometry" />
        </mxCell>
        <mxCell id="upV95KGGiybuSMdhG28T-35" style="edgeStyle=orthogonalEdgeStyle;rounded=1;orthogonalLoop=1;jettySize=auto;html=1;entryX=0.5;entryY=0;entryDx=0;entryDy=0;exitX=0.5;exitY=0;exitDx=0;exitDy=0;curved=0;" edge="1" parent="1" source="upV95KGGiybuSMdhG28T-31" target="upV95KGGiybuSMdhG28T-33">
          <mxGeometry relative="1" as="geometry" />
        </mxCell>
        <mxCell id="upV95KGGiybuSMdhG28T-41" style="edgeStyle=orthogonalEdgeStyle;rounded=0;orthogonalLoop=1;jettySize=auto;html=1;entryX=0.5;entryY=0;entryDx=0;entryDy=0;shape=link;fillColor=#cce5ff;strokeColor=#36393d;" edge="1" parent="1" source="upV95KGGiybuSMdhG28T-31" target="upV95KGGiybuSMdhG28T-2">
          <mxGeometry relative="1" as="geometry" />
        </mxCell>
        <mxCell id="upV95KGGiybuSMdhG28T-31" value="Login / Cognito" style="rounded=1;whiteSpace=wrap;html=1;" vertex="1" parent="1">
          <mxGeometry x="240" y="110" width="120" height="60" as="geometry" />
        </mxCell>
        <mxCell id="upV95KGGiybuSMdhG28T-34" style="edgeStyle=orthogonalEdgeStyle;rounded=0;orthogonalLoop=1;jettySize=auto;html=1;shape=link;fillColor=#647687;strokeColor=#314354;entryX=0.5;entryY=0;entryDx=0;entryDy=0;" edge="1" parent="1" source="upV95KGGiybuSMdhG28T-33" target="upV95KGGiybuSMdhG28T-3">
          <mxGeometry relative="1" as="geometry">
            <mxPoint x="550" y="220" as="targetPoint" />
            <Array as="points">
              <mxPoint x="515" y="210" />
              <mxPoint x="551" y="210" />
              <mxPoint x="551" y="220" />
              <mxPoint x="550" y="220" />
            </Array>
          </mxGeometry>
        </mxCell>
        <mxCell id="upV95KGGiybuSMdhG28T-36" style="edgeStyle=orthogonalEdgeStyle;rounded=1;orthogonalLoop=1;jettySize=auto;html=1;entryX=0.25;entryY=0;entryDx=0;entryDy=0;exitX=0.202;exitY=1.024;exitDx=0;exitDy=0;exitPerimeter=0;curved=0;" edge="1" parent="1" source="upV95KGGiybuSMdhG28T-33" target="upV95KGGiybuSMdhG28T-1">
          <mxGeometry relative="1" as="geometry">
            <Array as="points">
              <mxPoint x="479" y="265" />
              <mxPoint x="480" y="265" />
              <mxPoint x="480" y="330" />
              <mxPoint x="520" y="330" />
            </Array>
          </mxGeometry>
        </mxCell>
        <mxCell id="upV95KGGiybuSMdhG28T-33" value="code =&amp;gt; Express Token" style="rounded=1;whiteSpace=wrap;html=1;" vertex="1" parent="1">
          <mxGeometry x="455" y="120" width="120" height="60" as="geometry" />
        </mxCell>
        <mxCell id="upV95KGGiybuSMdhG28T-38" value="Context" style="shape=parallelogram;perimeter=parallelogramPerimeter;whiteSpace=wrap;html=1;fixedSize=1;size=9.999999999999773;fillColor=#a20025;fontColor=#ffffff;strokeColor=#6F0000;" vertex="1" parent="1">
          <mxGeometry x="385" y="400" width="80" height="20" as="geometry" />
        </mxCell>
        <mxCell id="upV95KGGiybuSMdhG28T-39" value="Context" style="shape=parallelogram;perimeter=parallelogramPerimeter;whiteSpace=wrap;html=1;fixedSize=1;size=9.999999999999773;fillColor=#a20025;fontColor=#ffffff;strokeColor=#6F0000;" vertex="1" parent="1">
          <mxGeometry x="260" y="565" width="80" height="20" as="geometry" />
        </mxCell>
      </root>
    </mxGraphModel>
  </diagram>
</mxfile>
